<svg xmlns="http://www.w3.org/2000/svg" viewBox="0 0 366.54 50.94"><defs><style>.cls-1{fill:#231f20;}</style></defs><title>Asset 1</title><g id="Layer_2" data-name="Layer 2"><g id="Layer_1-2" data-name="Layer 1"><path class="cls-1" d="M74.29.87,48,43.94H9.82V.87H0v49.2H54.76l7.15-11.91H98.06l7.15,11.91H116L86,.87ZM65.57,32.11,80,7.94,94.45,32.11Z"/><polygon class="cls-1" points="169.07 39.31 127.34 0.87 117.21 0.87 117.21 50.07 127.03 50.07 127.03 11.77 168.76 50.07 178.84 50.07 178.84 0.87 169.07 0.87 169.07 39.31"/><path class="cls-1" d="M235,29.34a21.83,21.83,0,0,0-4.21-2.56,37.6,37.6,0,0,0-4.8-1.93q-2.33-.75-5.12-1.38c-1.87-.42-3.4-.73-4.6-.94s-2.45-.39-3.73-.56q-17.65-2.43-17.66-8.49,0-3.35,4.57-5.49A27.29,27.29,0,0,1,211,5.85a41.75,41.75,0,0,1,11.31,1.5,26.19,26.19,0,0,1,8.38,3.72l4.7-4.87A31.3,31.3,0,0,0,225.1,1.67a55,55,0,0,0-14-1.67q-11.59,0-18.94,3.8t-7.34,9.92a8.39,8.39,0,0,0,1.41,4.67A12.6,12.6,0,0,0,190,22.06a28.51,28.51,0,0,0,5.64,2.75,52.11,52.11,0,0,0,6.74,2q3.42.78,7.39,1.34l2.56.38L215,29c1.35.25,2.32.44,2.93.6l2.69.69a18.59,18.59,0,0,1,2.69.89c.61.28,1.33.63,2.17,1.06a7,7,0,0,1,1.88,1.32,7.85,7.85,0,0,1,1.1,1.57,4,4,0,0,1,.46,1.87q0,3.51-5,5.79a29.86,29.86,0,0,1-12.38,2.28,45.88,45.88,0,0,1-13.11-1.89,35.57,35.57,0,0,1-10.65-5l-5.23,4.91a41.72,41.72,0,0,0,13,5.7,61.26,61.26,0,0,0,16,2.1q11.76,0,19.62-4T239,36.74a8,8,0,0,0-1.13-4.11A11.66,11.66,0,0,0,235,29.34Z"/><path class="cls-1" d="M296.05,3.32a60.23,60.23,0,0,0-39.44,0,33.33,33.33,0,0,0-13.86,9.16,19.41,19.41,0,0,0-5,13,18.69,18.69,0,0,0,3,10.09,26.7,26.7,0,0,0,8.07,8.09A42.88,42.88,0,0,0,261,49a57.56,57.56,0,0,0,15.3,2,55.88,55.88,0,0,0,19.72-3.32,33.41,33.41,0,0,0,13.89-9.18,19.23,19.23,0,0,0,0-26A33.57,33.57,0,0,0,296.05,3.32Zm5.12,31.9a24.69,24.69,0,0,1-10.29,6.91,43.43,43.43,0,0,1-29.1,0,24.45,24.45,0,0,1-10.26-6.91,14.82,14.82,0,0,1-3.71-9.77,14.15,14.15,0,0,1,2.2-7.59,20,20,0,0,1,6-6.09,30.67,30.67,0,0,1,9.06-4A42.22,42.22,0,0,1,276.33,6.3a40.69,40.69,0,0,1,14.55,2.49,24.58,24.58,0,0,1,10.29,6.9,14.65,14.65,0,0,1,0,19.53Z"/><polygon class="cls-1" points="309.5 0.87 309.5 7 333.16 7 333.16 50.07 342.88 50.07 342.88 7 366.54 7 366.54 0.87 309.5 0.87"/></g></g></svg>